<svg xmlns="http://www.w3.org/2000/svg" width="1280" height="720" viewBox="0 0 1280 720"><rect width="1280" height="720" fill="#08070d"/><rect x="80" y="60" width="1120" height="600" rx="20" fill="#12101a" stroke="#7651cc" stroke-width="4"/><text x="120" y="112" fill="#fff" font-family="Arial,sans-serif" font-size="26" font-weight="700">PAUSED · RUN LOADOUT</text><g><svg data-hud-component="health" x="120" y="140" width="420" height="48" viewBox="0 0 420 48"><path d="M4 4h402l10 10v20l-10 10H4Z" fill="#0b0912" fill-opacity=".9" stroke="#a43a4f" stroke-width="3"/><path d="M16 14h380v20H16z" fill="#24131a"/><path d="M16 14h318v20H16z" fill="#d84a5c"/><path d="M22 17h306v5H22z" fill="#ff8d9b" opacity=".55"/><text x="405" y="32" text-anchor="end" fill="#fff4ef" font-family="Arial,sans-serif" font-size="15" font-weight="700">96 / 120</text></svg><svg data-hud-component="energy" x="120" y="196" width="360" height="38" viewBox="0 0 360 38"><path d="M4 4h342l10 10v10l-10 10H4Z" fill="#0b0912" fill-opacity=".9" stroke="#7651cc" stroke-width="3"/><path d="M14 12h324v14H14z" fill="#171027"/><path d="M14 12h238v14H14z" fill="#7c45e8"/><path d="M18 14h229v4H18z" fill="#c99cff" opacity=".55"/><text x="344" y="25" text-anchor="end" fill="#f2eaff" font-family="Arial,sans-serif" font-size="12" font-weight="700">74 / 100</text></svg><svg data-hud-component="xp" x="120" y="242" width="300" height="30" viewBox="0 0 300 30"><path d="M4 4h282l10 10v2l-10 10H4Z" fill="#0b0912" fill-opacity=".9" stroke="#d2a84a" stroke-width="3"/><circle cx="18" cy="15" r="12" fill="#1c1727" stroke="#d2a84a" stroke-width="2"/><text x="18" y="20" text-anchor="middle" fill="#fff2a8" font-family="Arial,sans-serif" font-size="13" font-weight="700">27</text><path d="M36 10h246v10H36z" fill="#15121b"/><path d="M36 10h151v10H36z" fill="#d2a84a"/><text x="282" y="19" text-anchor="end" fill="#fff4c2" font-family="Arial,sans-serif" font-size="8" font-weight="700">GLOBAL DIVE LEVEL · +18 XP</text></svg><svg data-hud-component="special" x="500" y="178" width="72" height="72" viewBox="0 0 72 72"><path d="M8 3h48l13 13v48l-8 5H8l-5-8V11Z" fill="#0b0912" fill-opacity=".92" stroke="#a78bfa" stroke-width="4"/><circle cx="36" cy="36" r="22" fill="#2a1747" stroke="#d7b7ff" stroke-width="3"/><text x="36" y="45" text-anchor="middle" fill="#fff" font-size="28">☾</text><path d="M11 62h50" stroke="#77e8cf" stroke-width="5"/><text x="62" y="16" text-anchor="end" fill="#fff" font-family="Arial,sans-serif" font-size="9" font-weight="700">K</text></svg><svg data-hud-component="wager" x="760" y="140" width="350" height="66" viewBox="0 0 350 66"><path d="M4 4h332l10 10v38l-10 10H4Z" fill="#0b0912" fill-opacity=".9" stroke="#d2a84a" stroke-width="3"/><text x="18" y="20" fill="#fff2a8" font-family="Arial,sans-serif" font-size="11" font-weight="700">PERFECT BET · ACTIVE</text><text x="18" y="39" fill="#f4eef5" font-family="Arial,sans-serif" font-size="13">Clear without taking damage</text><text x="18" y="56" fill="#d2a84a" font-family="Arial,sans-serif" font-size="11">REWARD: DUPLICATE BOON STACK</text></svg></g><text x="120" y="320" fill="#d7b7ff" font-family="Arial,sans-serif" font-size="17" font-weight="700">BOON STACKS</text><g font-family="Arial,sans-serif"><rect x="120" y="345" width="470" height="36" rx="8" fill="#1b1725" stroke="#ff4f76"/><text x="140" y="369" fill="#ffd2a8" font-size="14">Pyrra ×3 · dominant</text><rect x="120" y="392" width="470" height="36" rx="8" fill="#1b1725" stroke="#3a3247"/><text x="140" y="416" fill="#d8d2df" font-size="14">Maris ×2</text><rect x="120" y="439" width="470" height="36" rx="8" fill="#1b1725" stroke="#3a3247"/><text x="140" y="463" fill="#d8d2df" font-size="14">Crya ×1</text><rect x="120" y="486" width="470" height="36" rx="8" fill="#1b1725" stroke="#3a3247"/><text x="140" y="510" fill="#d8d2df" font-size="14">Voltara ×1</text><rect x="120" y="533" width="470" height="36" rx="8" fill="#1b1725" stroke="#3a3247"/><text x="140" y="557" fill="#d8d2df" font-size="14">Noctissa ×1</text></g><text x="650" y="320" fill="#7ee3ef" font-family="Arial,sans-serif" font-size="17" font-weight="700">RUN INFORMATION</text><g fill="#d8d2df" font-family="Arial,sans-serif" font-size="14"><text x="650" y="360">Seed: DD-7F3A-91C2</text><text x="650" y="390">Depth: 47 · Thousand Faces</text><text x="650" y="420">Elite powers: Frenzied II · Volatile I</text><text x="650" y="450">Wager: Perfect Bet</text><text x="650" y="480">Temporary wealth: 186</text><text x="650" y="510">Run time: 42:18</text></g><text x="640" y="638" text-anchor="middle" fill="#8f879a" font-family="Arial,sans-serif" font-size="11">FULL INFORMATION IS PAUSE/MENU CONTENT, NOT PERMANENT COMBAT CLUTTER</text></svg>