<svg xmlns="http://www.w3.org/2000/svg" width="128" height="128" viewBox="0 0 128 128"><defs><radialGradient id="g"><stop stop-color="#5c5be8" stop-opacity=".38"/><stop offset="1" stop-color="#5c5be8" stop-opacity=".04"/></radialGradient></defs><circle cx="64" cy="64" r="59" fill="url(#g)" stroke="#5c5be8" stroke-width="5"/><polygon points="82.75,18.73 109.27,45.25 109.27,82.75 82.75,109.27 45.25,109.27 18.73,82.75 18.73,45.25 45.25,18.73" fill="none" stroke="#d9d5ff" stroke-width="2" opacity=".68"/><g stroke="#5c5be8" stroke-width="3" opacity=".48"><path d="M64 64L64.00 22.00"/><path d="M64 64L93.70 34.30"/><path d="M64 64L106.00 64.00"/><path d="M64 64L93.70 93.70"/><path d="M64 64L64.00 106.00"/><path d="M64 64L34.30 93.70"/><path d="M64 64L22.00 64.00"/><path d="M64 64L34.30 34.30"/></g><polygon points="64.00,34.00 85.21,42.79 94.00,64.00 85.21,85.21 64.00,94.00 42.79,85.21 34.00,64.00 42.79,42.79" fill="#0b0912" stroke="#5c5be8" stroke-width="4"/><circle cx="64.00" cy="16.00" r="3" fill="#d9d5ff"/><circle cx="97.94" cy="30.06" r="3" fill="#d9d5ff"/><circle cx="112.00" cy="64.00" r="3" fill="#d9d5ff"/><circle cx="97.94" cy="97.94" r="3" fill="#d9d5ff"/><circle cx="64.00" cy="112.00" r="3" fill="#d9d5ff"/><circle cx="30.06" cy="97.94" r="3" fill="#d9d5ff"/><circle cx="16.00" cy="64.00" r="3" fill="#d9d5ff"/><circle cx="30.06" cy="30.06" r="3" fill="#d9d5ff"/><text x="64" y="75" text-anchor="middle" font-family="Georgia,serif" font-size="42" font-weight="700" fill="#d9d5ff">◐</text></svg>