<svg xmlns="http://www.w3.org/2000/svg" width="1200" height="780" viewBox="0 0 1200 780"><rect width="1200" height="780" fill="#050409"/><g><rect x="8" y="8" width="384" height="244" rx="12" fill="#090611" stroke="#ff4f9a" stroke-width="2"/><path d="M18 164l80-76 62 56 70-102 144 122v12H18Z" fill="#3b1745" opacity=".75"/><text x="22" y="36" fill="#ffffff" font-family="Arial,sans-serif" font-size="18" font-weight="700">L1 · The Neon Maw</text><text x="22" y="60" fill="#56dce8" font-family="Arial,sans-serif" font-size="11">mouth arches · speaker rectangles · hooked neon diagonals</text><text x="22" y="82" fill="#e5dfeb" font-family="Arial,sans-serif" font-size="10">Props: speaker stacks · velvet booths · bar rails</text><text x="22" y="102" fill="#e5dfeb" font-family="Arial,sans-serif" font-size="10">Hazards: jaw gates · beat lasers · hungry floor vents</text><text x="22" y="126" fill="#ff9aa9" font-family="Arial,sans-serif" font-size="10">FORBID: generic medieval masonry</text><rect x="22" y="184" width="46" height="28" rx="4" fill="#090611"/><rect x="76" y="184" width="46" height="28" rx="4" fill="#1c0e26"/><rect x="130" y="184" width="46" height="28" rx="4" fill="#3b1745"/><rect x="184" y="184" width="46" height="28" rx="4" fill="#713250"/><rect x="238" y="184" width="46" height="28" rx="4" fill="#ff4f9a"/><rect x="292" y="184" width="46" height="28" rx="4" fill="#56dce8"/><text x="22" y="232" fill="#a9a2b3" font-family="Arial,sans-serif" font-size="9">standard with low-density combat lanes</text></g><g><rect x="408" y="8" width="384" height="244" rx="12" fill="#03121b" stroke="#42e8f5" stroke-width="2"/><path d="M418 164l80-76 62 56 70-102 144 122v12H418Z" fill="#0f4c5c" opacity=".75"/><text x="422" y="36" fill="#ffffff" font-family="Arial,sans-serif" font-size="18" font-weight="700">L2 · The Drowned Court</text><text x="422" y="60" fill="#ff79c9" font-family="Arial,sans-serif" font-size="11">shell fans · tall organ pipes · flowing S-curves</text><text x="422" y="82" fill="#e5dfeb" font-family="Arial,sans-serif" font-size="10">Props: broken instruments · fan banners without text · shell lamps</text><text x="422" y="102" fill="#e5dfeb" font-family="Arial,sans-serif" font-size="10">Hazards: visible current ribbons · bubble lifts · song pillars</text><text x="422" y="126" fill="#ff9aa9" font-family="Arial,sans-serif" font-size="10">FORBID: opaque foreground water over Milo</text><rect x="422" y="184" width="46" height="28" rx="4" fill="#03121b"/><rect x="476" y="184" width="46" height="28" rx="4" fill="#082937"/><rect x="530" y="184" width="46" height="28" rx="4" fill="#0f4c5c"/><rect x="584" y="184" width="46" height="28" rx="4" fill="#2f6f78"/><rect x="638" y="184" width="46" height="28" rx="4" fill="#42e8f5"/><rect x="692" y="184" width="46" height="28" rx="4" fill="#ff79c9"/><text x="422" y="232" fill="#a9a2b3" font-family="Arial,sans-serif" font-size="9">standard, with sparse water particles</text></g><g><rect x="808" y="8" width="384" height="244" rx="12" fill="#090b08" stroke="#a6d43b" stroke-width="2"/><path d="M818 164l80-76 62 56 70-102 144 122v12H818Z" fill="#334220" opacity=".75"/><text x="822" y="36" fill="#ffffff" font-family="Arial,sans-serif" font-size="18" font-weight="700">L3 · The Thornwild</text><text x="822" y="60" fill="#ef4e43" font-family="Arial,sans-serif" font-size="11">barbed crescents · root wedges · vertical spear trunks</text><text x="822" y="82" fill="#e5dfeb" font-family="Arial,sans-serif" font-size="10">Props: shed antlers · hanging seed pods · claw-mark stones</text><text x="822" y="102" fill="#e5dfeb" font-family="Arial,sans-serif" font-size="10">Hazards: snare circles with armed state · thorn lanes · falling pods</text><text x="822" y="126" fill="#ff9aa9" font-family="Arial,sans-serif" font-size="10">FORBID: lush realistic foliage everywhere</text><rect x="822" y="184" width="46" height="28" rx="4" fill="#090b08"/><rect x="876" y="184" width="46" height="28" rx="4" fill="#1d2615"/><rect x="930" y="184" width="46" height="28" rx="4" fill="#334220"/><rect x="984" y="184" width="46" height="28" rx="4" fill="#61442a"/><rect x="1038" y="184" width="46" height="28" rx="4" fill="#a6d43b"/><rect x="1092" y="184" width="46" height="28" rx="4" fill="#ef4e43"/><text x="822" y="232" fill="#a9a2b3" font-family="Arial,sans-serif" font-size="9">low-to-standard; protect horizontal escape lanes</text></g><g><rect x="8" y="268" width="384" height="244" rx="12" fill="#090716" stroke="#d2a84a" stroke-width="2"/><path d="M18 424l80-76 62 56 70-102 144 122v12H18Z" fill="#39205a" opacity=".75"/><text x="22" y="296" fill="#ffffff" font-family="Arial,sans-serif" font-size="18" font-weight="700">L4 · The Thunder Jackpot</text><text x="22" y="320" fill="#52c7dd" font-family="Arial,sans-serif" font-size="11">diamonds · stepped marquees · lightning slashes</text><text x="22" y="342" fill="#e5dfeb" font-family="Arial,sans-serif" font-size="10">Props: dice pylons · chip stacks · marquee bulbs</text><text x="22" y="362" fill="#e5dfeb" font-family="Arial,sans-serif" font-size="10">Hazards: telegraphed electric rails · roulette sweeps · bounded jackp…</text><text x="22" y="386" fill="#ff9aa9" font-family="Arial,sans-serif" font-size="10">FORBID: undisclosed random harm</text><rect x="22" y="444" width="46" height="28" rx="4" fill="#090716"/><rect x="76" y="444" width="46" height="28" rx="4" fill="#18112b"/><rect x="130" y="444" width="46" height="28" rx="4" fill="#39205a"/><rect x="184" y="444" width="46" height="28" rx="4" fill="#5a3d78"/><rect x="238" y="444" width="46" height="28" rx="4" fill="#d2a84a"/><rect x="292" y="444" width="46" height="28" rx="4" fill="#52c7dd"/><text x="22" y="492" fill="#a9a2b3" font-family="Arial,sans-serif" font-size="9">standard; high only in jackpot reveal states</text></g><g><rect x="408" y="268" width="384" height="244" rx="12" fill="#050a18" stroke="#b7d9e8" stroke-width="2"/><path d="M418 424l80-76 62 56 70-102 144 122v12H418Z" fill="#173354" opacity=".75"/><text x="422" y="296" fill="#ffffff" font-family="Arial,sans-serif" font-size="18" font-weight="700">L5 · The Frozen Basilica</text><text x="422" y="320" fill="#74cce5" font-family="Arial,sans-serif" font-size="11">lancet arches · crystal spears · concentric halos</text><text x="422" y="342" fill="#e5dfeb" font-family="Arial,sans-serif" font-size="10">Props: crystal censers · frozen votives · memory reliefs</text><text x="422" y="362" fill="#e5dfeb" font-family="Arial,sans-serif" font-size="10">Hazards: ice momentum lanes · delayed crystal drops · freezing fields</text><text x="422" y="386" fill="#ff9aa9" font-family="Arial,sans-serif" font-size="10">FORBID: white-on-white telegraphs</text><rect x="422" y="444" width="46" height="28" rx="4" fill="#050a18"/><rect x="476" y="444" width="46" height="28" rx="4" fill="#0d1b32"/><rect x="530" y="444" width="46" height="28" rx="4" fill="#173354"/><rect x="584" y="444" width="46" height="28" rx="4" fill="#315978"/><rect x="638" y="444" width="46" height="28" rx="4" fill="#b7d9e8"/><rect x="692" y="444" width="46" height="28" rx="4" fill="#74cce5"/><text x="422" y="492" fill="#a9a2b3" font-family="Arial,sans-serif" font-size="9">low-to-standard; negative space is part of the cold</text></g><g><rect x="808" y="268" width="384" height="244" rx="12" fill="#120b16" stroke="#d5c1a5" stroke-width="2"/><path d="M818 424l80-76 62 56 70-102 144 122v12H818Z" fill="#4a273d" opacity=".75"/><text x="822" y="296" fill="#ffffff" font-family="Arial,sans-serif" font-size="18" font-weight="700">L6 · The Forever Motel</text><text x="822" y="320" fill="#9e5276" font-family="Arial,sans-serif" font-size="11">long horizontals · repeating door rectangles · soft warpe…</text><text x="822" y="342" fill="#e5dfeb" font-family="Arial,sans-serif" font-size="10">Props: room keys · ice machines · vacancy icons</text><text x="822" y="362" fill="#e5dfeb" font-family="Arial,sans-serif" font-size="10">Hazards: loop doors · false exits · sleep fields</text><text x="822" y="386" fill="#ff9aa9" font-family="Arial,sans-serif" font-size="10">FORBID: unique decoration on every door</text><rect x="822" y="444" width="46" height="28" rx="4" fill="#120b16"/><rect x="876" y="444" width="46" height="28" rx="4" fill="#2a1628"/><rect x="930" y="444" width="46" height="28" rx="4" fill="#4a273d"/><rect x="984" y="444" width="46" height="28" rx="4" fill="#765064"/><rect x="1038" y="444" width="46" height="28" rx="4" fill="#d5c1a5"/><rect x="1092" y="444" width="46" height="28" rx="4" fill="#9e5276"/><text x="822" y="492" fill="#a9a2b3" font-family="Arial,sans-serif" font-size="9">low; repetition supplies identity without extra objects</text></g><g><rect x="8" y="528" width="384" height="244" rx="12" fill="#060817" stroke="#7ee3ef" stroke-width="2"/><path d="M18 684l80-76 62 56 70-102 144 122v12H18Z" fill="#1d3150" opacity=".75"/><text x="22" y="556" fill="#ffffff" font-family="Arial,sans-serif" font-size="18" font-weight="700">L7 · The City of a Thousand Faces</text><text x="22" y="580" fill="#9b70d8" font-family="Arial,sans-serif" font-size="11">faceted masks · diagonal mirror cuts · tall stacked windo…</text><text x="22" y="602" fill="#e5dfeb" font-family="Arial,sans-serif" font-size="10">Props: mask kiosks · covered mirrors · shard planters</text><text x="22" y="622" fill="#e5dfeb" font-family="Arial,sans-serif" font-size="10">Hazards: projectile redirects · copy zones · shard sweeps</text><text x="22" y="646" fill="#ff9aa9" font-family="Arial,sans-serif" font-size="10">FORBID: full-room mirror noise</text><rect x="22" y="704" width="46" height="28" rx="4" fill="#060817"/><rect x="76" y="704" width="46" height="28" rx="4" fill="#101a32"/><rect x="130" y="704" width="46" height="28" rx="4" fill="#1d3150"/><rect x="184" y="704" width="46" height="28" rx="4" fill="#385a78"/><rect x="238" y="704" width="46" height="28" rx="4" fill="#7ee3ef"/><rect x="292" y="704" width="46" height="28" rx="4" fill="#9b70d8"/><text x="22" y="752" fill="#a9a2b3" font-family="Arial,sans-serif" font-size="9">standard; mirror count capped per sightline</text></g><g><rect x="408" y="528" width="384" height="244" rx="12" fill="#11070f" stroke="#bb3b5a" stroke-width="2"/><path d="M418 684l80-76 62 56 70-102 144 122v12H418Z" fill="#461126" opacity=".75"/><text x="422" y="556" fill="#ffffff" font-family="Arial,sans-serif" font-size="18" font-weight="700">L8 · Lilith’s Throne</text><text x="422" y="580" fill="#8e55a8" font-family="Arial,sans-serif" font-size="11">downward crowns · bat-wing arches · blade hearts</text><text x="422" y="602" fill="#e5dfeb" font-family="Arial,sans-serif" font-size="10">Props: sealed censers · crown pylons · chain standards</text><text x="422" y="622" fill="#e5dfeb" font-family="Arial,sans-serif" font-size="10">Hazards: stacking curse seals · royal execution lanes · daughter cros…</text><text x="422" y="646" fill="#ff9aa9" font-family="Arial,sans-serif" font-size="10">FORBID: random lingerie props</text><rect x="422" y="704" width="46" height="28" rx="4" fill="#11070f"/><rect x="476" y="704" width="46" height="28" rx="4" fill="#260c1c"/><rect x="530" y="704" width="46" height="28" rx="4" fill="#461126"/><rect x="584" y="704" width="46" height="28" rx="4" fill="#6f1f3b"/><rect x="638" y="704" width="46" height="28" rx="4" fill="#bb3b5a"/><rect x="692" y="704" width="46" height="28" rx="4" fill="#8e55a8"/><text x="422" y="752" fill="#a9a2b3" font-family="Arial,sans-serif" font-size="9">standard-to-high in ceremonies; combat lanes remain sparse</text></g><g><rect x="808" y="528" width="384" height="244" rx="12" fill="#07070b" stroke="#8b8790" stroke-width="2"/><path d="M818 684l80-76 62 56 70-102 144 122v12H818Z" fill="#202127" opacity=".75"/><text x="822" y="556" fill="#ffffff" font-family="Arial,sans-serif" font-size="18" font-weight="700">L9 · The Self Below</text><text x="822" y="580" fill="#76559a" font-family="Arial,sans-serif" font-size="11">broken circles · long void planes · misaligned Milo silho…</text><text x="822" y="602" fill="#e5dfeb" font-family="Arial,sans-serif" font-size="10">Props: discarded lighters · broken boon sigils · memory frames</text><text x="822" y="622" fill="#e5dfeb" font-family="Arial,sans-serif" font-size="10">Hazards: base-kit duel lines · memory echoes · staged boon-restoratio…</text><text x="822" y="646" fill="#ff9aa9" font-family="Arial,sans-serif" font-size="10">FORBID: full-palette spectacle in every room</text><rect x="822" y="704" width="46" height="28" rx="4" fill="#07070b"/><rect x="876" y="704" width="46" height="28" rx="4" fill="#111217"/><rect x="930" y="704" width="46" height="28" rx="4" fill="#202127"/><rect x="984" y="704" width="46" height="28" rx="4" fill="#373840"/><rect x="1038" y="704" width="46" height="28" rx="4" fill="#8b8790"/><rect x="1092" y="704" width="46" height="28" rx="4" fill="#76559a"/><text x="822" y="752" fill="#a9a2b3" font-family="Arial,sans-serif" font-size="9">low by default; spectacle is event-driven</text></g></svg>