<svg xmlns="http://www.w3.org/2000/svg" width="640" height="192" viewBox="0 0 640 192"><rect width="640" height="192" fill="#16131e"/><text x="18" y="26" fill="#e8f5ff" font-size="18" font-family="Arial,sans-serif" font-weight="700">CRYA</text><text x="18" y="47" fill="#aaa1b8" font-size="11" font-family="Arial,sans-serif">rigid crystal dart with powder wake</text><g transform="translate(10 56)"><rect width="128" height="128" rx="18" fill="#0b0912"/><circle cx="64" cy="64" r="52" fill="#82baff" opacity=".08"/><path d="m64 8 25 48-25 64-25-64Z" fill="#82baff" stroke="#e8f5ff" stroke-width="4"/><path d="m64 8 1 86M39 56l26 38 24-38" fill="none" stroke="white" stroke-opacity=".55" stroke-width="3"/></g><g transform="translate(166 56)"><rect width="128" height="128" rx="18" fill="#0b0912"/><circle cx="64" cy="64" r="52" fill="#82baff" opacity=".08"/><g stroke="#82baff" stroke-width="3" stroke-linecap="round"><path d="M88 64L112 64"/><path d="M83.95167365947947 89.01860743897696L90.81006147992554 97.61875374612528"/><path d="M58.659497585048456 87.39826989236377L55.544204509660055 101.0472606629093"/><path d="M35.16899622712259 77.88427965176186L20.753494340683886 84.82641947764279"/><path d="M42.37674717034194 53.586790261178606L25.258338680195976 45.34299921794501"/><path d="M56.879330113397934 32.80230681018165L55.54420450966005 26.952739337090705"/><path d="M78.9637552446096 45.236044420767286L93.9275104892192 26.472088841534564"/></g><circle cx="64" cy="64" r="24" fill="#82baff" opacity=".32" stroke="#e8f5ff" stroke-width="4"/><text x="64" y="73" text-anchor="middle" font-size="28" font-weight="700" fill="#e8f5ff">❄</text></g><g transform="translate(322 56)"><rect width="128" height="128" rx="18" fill="#0b0912"/><circle cx="64" cy="64" r="52" fill="#82baff" opacity=".08"/><circle cx="64" cy="64" r="42" fill="none" stroke="#82baff" stroke-width="7" stroke-dasharray="9 4"/><path d="M64 16v12M64 100v12M16 64h12M100 64h12" stroke="#e8f5ff" stroke-width="4"/><text x="64" y="79" text-anchor="middle" font-size="45" font-weight="700" fill="#e8f5ff">❄</text></g><g transform="translate(478 56)"><rect width="128" height="128" rx="18" fill="#0b0912"/><circle cx="64" cy="64" r="52" fill="#82baff" opacity=".08"/><circle cx="64" cy="64" r="49" fill="none" stroke="#82baff" stroke-width="5"/><circle cx="64" cy="64" r="29" fill="#82baff" opacity=".36" stroke="#e8f5ff" stroke-width="4"/><path d="M64 5 71 34 99 20 91 49 123 56 94 70 110 97 78 90 64 123 50 90 18 97 34 70 5 56 37 49 29 20 57 34Z" fill="none" stroke="#e8f5ff" stroke-width="2" opacity=".55"/><text x="64" y="78" text-anchor="middle" font-size="40" font-weight="700" fill="#e8f5ff">❄</text></g><g fill="#d8d2df" font-family="Arial,sans-serif" font-size="10" text-anchor="middle"><text x="74" y="187">PROJECTILE</text><text x="230" y="187">IMPACT</text><text x="386" y="187">STATUS</text><text x="542" y="187">SPECIAL</text></g></svg>