<svg xmlns="http://www.w3.org/2000/svg" width="640" height="192" viewBox="0 0 640 192"><rect width="640" height="192" fill="#16131e"/><text x="18" y="26" fill="#fff9bd" font-size="18" font-family="Arial,sans-serif" font-weight="700">VOLTARA</text><text x="18" y="47" fill="#aaa1b8" font-size="11" font-family="Arial,sans-serif">jittering bolt with hard angular forks</text><g transform="translate(10 56)"><rect width="128" height="128" rx="18" fill="#0b0912"/><circle cx="64" cy="64" r="52" fill="#f6df45" opacity=".08"/><path d="m70 9-38 56h26l-10 54 48-67H70Z" fill="#f6df45" stroke="#fff9bd" stroke-width="4"/><path d="M20 35l18 12M95 83l18 12" stroke="#fff9bd" stroke-width="5"/></g><g transform="translate(166 56)"><rect width="128" height="128" rx="18" fill="#0b0912"/><circle cx="64" cy="64" r="52" fill="#f6df45" opacity=".08"/><g stroke="#f6df45" stroke-width="5" stroke-linecap="round"><path d="M88 64L112 64"/><path d="M80 91.71281292110203L85.5 101.23909236273086"/><path d="M52.00000000000001 84.78460969082653L45.00000000000001 96.90896534380867"/><path d="M32 64L16 64"/><path d="M51.999999999999986 43.21539030917347L42.499999999999986 26.760907637269142"/><path d="M80 36.287187078897965L83 31.091034656191333"/></g><circle cx="64" cy="64" r="21" fill="#f6df45" opacity=".32" stroke="#fff9bd" stroke-width="4"/><text x="64" y="73" text-anchor="middle" font-size="28" font-weight="700" fill="#fff9bd">ϟ</text></g><g transform="translate(322 56)"><rect width="128" height="128" rx="18" fill="#0b0912"/><circle cx="64" cy="64" r="52" fill="#f6df45" opacity=".08"/><circle cx="64" cy="64" r="42" fill="none" stroke="#f6df45" stroke-width="7" stroke-dasharray="8 6"/><path d="M64 16v12M64 100v12M16 64h12M100 64h12" stroke="#fff9bd" stroke-width="4"/><text x="64" y="79" text-anchor="middle" font-size="45" font-weight="700" fill="#fff9bd">ϟ</text></g><g transform="translate(478 56)"><rect width="128" height="128" rx="18" fill="#0b0912"/><circle cx="64" cy="64" r="52" fill="#f6df45" opacity=".08"/><circle cx="64" cy="64" r="49" fill="none" stroke="#f6df45" stroke-width="5"/><circle cx="64" cy="64" r="25" fill="#f6df45" opacity=".36" stroke="#fff9bd" stroke-width="4"/><path d="M64 5 71 34 99 20 91 49 123 56 94 70 110 97 78 90 64 123 50 90 18 97 34 70 5 56 37 49 29 20 57 34Z" fill="none" stroke="#fff9bd" stroke-width="2" opacity=".55"/><text x="64" y="78" text-anchor="middle" font-size="40" font-weight="700" fill="#fff9bd">ϟ</text></g><g fill="#d8d2df" font-family="Arial,sans-serif" font-size="10" text-anchor="middle"><text x="74" y="187">PROJECTILE</text><text x="230" y="187">IMPACT</text><text x="386" y="187">STATUS</text><text x="542" y="187">SPECIAL</text></g></svg>